<svg width="153" height="45" viewBox="0 0 153 45" fill="none" xmlns="http://www.w3.org/2000/svg">
<g clip-path="url(#clip0_30_20)">
<path d="M2.57458 18.7338C3.08139 21.6364 5.01232 23.5782 8.32684 23.5782C11.6414 23.5782 13.7395 21.5648 13.7395 19.0047C13.7395 16.4445 12.0823 15.1823 9.60906 14.4668L6.66451 13.6134C3.18275 12.5914 0.70953 10.7466 0.70953 7.30241C0.70953 3.48001 3.89228 0.955597 8.05316 0.955597C12.2141 0.955597 15.0572 3.75596 15.3613 7.44038H12.8932C12.5891 4.95174 10.8305 3.1734 8.01769 3.1734C5.20491 3.1734 3.31452 4.70645 3.31452 7.23597C3.31452 9.7655 5.07314 10.6138 7.57677 11.3292L10.3845 12.1826C14.074 13.2404 16.3395 15.1516 16.3395 18.836C16.3395 22.9293 12.9236 25.796 8.2863 25.796C3.64901 25.796 0.608169 22.9293 0 18.7338H2.57458Z" fill="#173493"/>
<path d="M19.4614 16.9248C19.4614 12.3206 22.9482 8.12003 28.4623 8.12003C33.9763 8.12003 37.4632 12.3155 37.4632 16.9248C37.4632 21.5342 33.9763 25.7296 28.4623 25.7296C22.9482 25.7296 19.4614 21.5342 19.4614 16.9248ZM22.0309 16.9248C22.0309 20.3384 24.4686 23.5118 28.4623 23.5118C32.4559 23.5118 34.8937 20.3384 34.8937 16.9248C34.8937 13.5112 32.4914 10.3378 28.4623 10.3378C24.4332 10.3378 22.0309 13.547 22.0309 16.9248Z" fill="#173493"/>
<path d="M42.44 10.7467H39.3282V8.52884H42.44V6.1424C42.44 1.94697 44.2341 0 48.1923 0C48.9018 0 49.8495 0.102203 50.255 0.270838V2.48864C49.9154 2.35067 49.1704 2.24847 48.5977 2.24847C45.9573 2.24847 45.0805 3.40847 45.0805 6.17306V8.52884H50.0877V10.7467H45.0805V25.3157H42.44V10.7467Z" fill="#173493"/>
<path d="M54.4514 3.20918H57.0918V8.53396H62.1345V10.7518H57.0918V20.134C57.0918 22.454 57.8368 23.476 59.935 23.476C60.7155 23.476 61.3237 23.3381 61.9318 23.1694V25.3208C61.4605 25.5252 60.305 25.7296 59.3623 25.7296C55.47 25.7296 54.4564 23.3432 54.4564 19.2806V10.7518H51.0405V8.53396H54.4564V3.20918H54.4514Z" fill="#173493"/>
<path d="M68.495 25.3157H65.8545V8.52884H68.3936V11.8044C69.2755 9.418 71.6777 8.12003 74.6223 8.12003C78.6818 8.12003 81.2564 11.3292 81.2564 15.6933V25.3157H78.6159V16.2043C78.6159 12.8929 77.1969 10.5065 73.8114 10.5065C70.6996 10.5065 68.5001 12.9644 68.5001 16.1379V25.3157H68.495Z" fill="#173493"/>
<path d="M87.9209 18.0184C88.3263 21.4984 90.6272 23.6804 94.1141 23.6804C96.7191 23.6804 98.7159 22.4182 99.6991 20.8136H102.203C100.951 23.5782 97.905 25.7296 94.1496 25.7296C88.6659 25.7296 85.3159 21.7692 85.3159 16.9248C85.3159 12.0804 88.9041 8.12003 94.0127 8.12003C99.1213 8.12003 102.573 11.9424 102.573 16.7511V18.0133H87.9209V18.0184ZM87.8854 15.9692H100.105C99.8359 12.6272 97.6313 10.1028 94.0482 10.1028C90.7337 10.1028 88.225 12.4228 87.8905 15.9692H87.8854Z" fill="#173493"/>
<path d="M116.044 10.9204H115.334C111.68 10.9204 109.445 13.409 109.445 17.3694V25.3208H106.805V8.52884H109.344V12.6936C110.155 9.65819 112.76 8.39598 116.044 8.39598V10.9204Z" fill="#173493"/>
<path d="M131.339 8.52884H134.01L126.869 25.3157H124.705L117.564 8.52884H120.24L125.79 22.1781L131.339 8.52884Z" fill="#173493"/>
<path d="M138.343 18.0184C138.749 21.4984 141.049 23.6804 144.536 23.6804C147.141 23.6804 149.138 22.4182 150.121 20.8136H152.625C151.373 23.5782 148.327 25.7296 144.572 25.7296C139.088 25.7296 135.738 21.7692 135.738 16.9248C135.738 12.0804 139.326 8.12003 144.435 8.12003C149.544 8.12003 152.995 11.9424 152.995 16.7511V18.0133H138.343V18.0184ZM138.313 15.9692H150.532C150.263 12.6272 148.059 10.1028 144.476 10.1028C141.161 10.1028 138.652 12.4228 138.318 15.9692H138.313Z" fill="#173493"/>
<path d="M9.19855 35.5258H5.81815V44.8109H5.46338V35.5258H2.08298V35.2243H9.19855V35.5258Z" fill="black"/>
<path d="M14.738 35.2243H20.4699V35.5411H15.0927V39.7723H20.3483V40.0891H15.0927V44.4992H20.5105V44.816H14.738V35.2294V35.2243Z" fill="black"/>
<path d="M34.919 37.5801C34.1335 36.2361 32.7195 35.3623 30.8595 35.3623C28.1987 35.3623 26.1614 37.3501 26.1614 40.0176C26.1614 42.6851 28.1987 44.6729 30.8595 44.6729C32.7195 44.6729 34.1335 43.7991 34.919 42.4551H35.2738C34.4173 44.0546 32.8006 45 30.8595 45C28.0619 45 25.8066 42.9048 25.8066 40.0176C25.8066 37.1304 28.0619 35.0352 30.8595 35.0352C32.8006 35.0352 34.4173 35.9806 35.2738 37.5801H34.919Z" fill="black"/>
<path d="M41.1781 35.2243H41.5328V39.7979H48.2126V35.2243H48.5673V44.8109H48.2126V40.13H41.5328V44.8109H41.1781V35.2243Z" fill="black"/>
<path d="M55.0849 35.2243H55.3687L62.5653 44.259V35.2243H62.9049V44.8109H62.6211L55.4244 35.8017V44.8109H55.0849V35.2243Z" fill="black"/>
<path d="M73.8671 35.0352C76.6495 35.0352 78.92 37.1304 78.92 40.0176C78.92 42.9048 76.6546 45 73.8671 45C71.0797 45 68.8143 42.9048 68.8143 40.0176C68.8143 37.1304 71.0797 35.0352 73.8671 35.0352ZM69.164 40.0176C69.164 42.6851 71.1861 44.6729 73.8621 44.6729C76.538 44.6729 78.5602 42.6851 78.5602 40.0176C78.5602 37.3501 76.538 35.3623 73.8621 35.3623C71.1861 35.3623 69.164 37.3501 69.164 40.0176Z" fill="black"/>
<path d="M84.8243 35.2243H85.1791V44.4941H90.2421V44.8109H84.8243V35.2243Z" fill="black"/>
<path d="M99.8562 35.0352C102.639 35.0352 104.909 37.1304 104.909 40.0176C104.909 42.9048 102.639 45 99.8562 45C97.0738 45 94.8033 42.9048 94.8033 40.0176C94.8033 37.1304 97.0688 35.0352 99.8562 35.0352ZM95.1581 40.0176C95.1581 42.6851 97.1803 44.6729 99.8562 44.6729C102.532 44.6729 104.554 42.6851 104.554 40.0176C104.554 37.3501 102.532 35.3623 99.8562 35.3623C97.1803 35.3623 95.1581 37.3501 95.1581 40.0176Z" fill="black"/>
<path d="M119.302 37.5801C118.517 36.2361 117.088 35.3623 115.258 35.3623C112.526 35.3623 110.56 37.3194 110.56 40.0176C110.56 42.7158 112.582 44.6729 115.258 44.6729C117.731 44.6729 119.348 42.9866 119.819 40.8812H114.67V40.5797H120.184C119.9 42.8231 118.122 45 115.253 45C112.384 45 110.2 42.9048 110.2 40.0176C110.2 37.1304 112.384 35.0352 115.253 35.0352C117.194 35.0352 118.745 35.9397 119.667 37.5801H119.302Z" fill="black"/>
<path d="M126.159 35.2243H126.514V44.8109H126.159V35.2243Z" fill="black"/>
<path d="M133.103 35.2243H138.835V35.5411H133.458V39.7723H138.713V40.0891H133.458V44.4992H138.875V44.816H133.103V35.2294V35.2243Z" fill="black"/>
<path d="M144.536 42.358C144.81 43.7838 145.743 44.6883 147.39 44.6883C148.935 44.6883 150.01 43.7838 150.01 42.4143C150.01 41.1674 149.25 40.498 147.932 40.0994L146.873 39.7825C145.433 39.3584 144.521 38.6992 144.521 37.3603C144.521 35.9499 145.661 35.0301 147.222 35.0301C148.783 35.0301 149.761 36.0572 149.924 37.4421H149.599C149.437 36.185 148.621 35.3469 147.222 35.3469C145.824 35.3469 144.861 36.0726 144.861 37.3603C144.861 38.6481 145.646 39.0876 146.939 39.481L148.023 39.8081C149.447 40.2322 150.344 41.0141 150.344 42.4091C150.344 43.8042 149.179 44.9949 147.385 44.9949C145.59 44.9949 144.45 43.9269 144.207 42.3529H144.531L144.536 42.358Z" fill="black"/>
</g>
<defs>
<clipPath id="clip0_30_20">
<rect width="153" height="45" fill="white"/>
</clipPath>
</defs>
</svg>
