<svg width="119" height="97" viewBox="0 0 119 97" fill="none" xmlns="http://www.w3.org/2000/svg">
<path d="M0.00917992 48.25C0.00917992 33.3433 2.86918 21.6 8.58918 13.02C14.3958 4.43999 23.7125 0.149992 36.5392 0.149992C49.3658 0.149992 58.6392 4.43999 64.3592 13.02C70.1659 21.6 73.0692 33.3433 73.0692 48.25C73.0692 63.33 70.1659 75.16 64.3592 83.74C58.6392 92.32 49.3658 96.61 36.5392 96.61C23.7125 96.61 14.3958 92.32 8.58918 83.74C2.86918 75.16 0.00917992 63.33 0.00917992 48.25ZM51.2292 48.25C51.2292 39.4967 50.2758 32.78 48.3692 28.1C46.4625 23.3333 42.5192 20.95 36.5392 20.95C30.5592 20.95 26.6158 23.3333 24.7092 28.1C22.8025 32.78 21.8492 39.4967 21.8492 48.25C21.8492 54.1433 22.1958 59.04 22.8892 62.94C23.5825 66.7533 24.9692 69.8733 27.0492 72.3C29.2158 74.64 32.3792 75.81 36.5392 75.81C40.6992 75.81 43.8192 74.64 45.8992 72.3C48.0658 69.8733 49.4958 66.7533 50.1892 62.94C50.8825 59.04 51.2292 54.1433 51.2292 48.25ZM82.4739 22.77V2.1H118.484V97H95.3439V22.77H82.4739Z" fill="black" fill-opacity="0.22"/>
</svg>
