<svg width="150" height="97" viewBox="0 0 150 97" fill="none" xmlns="http://www.w3.org/2000/svg">
<path d="M0.313867 48.25C0.313867 33.3433 3.17387 21.6 8.89387 13.02C14.7005 4.43999 24.0172 0.149992 36.8439 0.149992C49.6705 0.149992 58.9439 4.43999 64.6639 13.02C70.4705 21.6 73.3739 33.3433 73.3739 48.25C73.3739 63.33 70.4705 75.16 64.6639 83.74C58.9439 92.32 49.6705 96.61 36.8439 96.61C24.0172 96.61 14.7005 92.32 8.89387 83.74C3.17387 75.16 0.313867 63.33 0.313867 48.25ZM51.5339 48.25C51.5339 39.4967 50.5805 32.78 48.6739 28.1C46.7672 23.3333 42.8239 20.95 36.8439 20.95C30.8639 20.95 26.9205 23.3333 25.0139 28.1C23.1072 32.78 22.1539 39.4967 22.1539 48.25C22.1539 54.1433 22.5005 59.04 23.1939 62.94C23.8872 66.7533 25.2739 69.8733 27.3539 72.3C29.5205 74.64 32.6839 75.81 36.8439 75.81C41.0039 75.81 44.1239 74.64 46.2039 72.3C48.3705 69.8733 49.8005 66.7533 50.4939 62.94C51.1872 59.04 51.5339 54.1433 51.5339 48.25ZM84.3386 79.19C87.2852 76.85 88.6286 75.7667 88.3686 75.94C96.8619 68.92 103.535 63.1567 108.389 58.65C113.329 54.1433 117.489 49.42 120.869 44.48C124.249 39.54 125.939 34.73 125.939 30.05C125.939 26.4967 125.115 23.7233 123.469 21.73C121.822 19.7367 119.352 18.74 116.059 18.74C112.765 18.74 110.165 19.9967 108.259 22.51C106.439 24.9367 105.529 28.4033 105.529 32.91H84.0786C84.2519 25.5433 85.8119 19.39 88.7586 14.45C91.7919 9.51 95.7352 5.87 100.589 3.52999C105.529 1.18999 110.989 0.0199933 116.969 0.0199933C127.282 0.0199933 135.039 2.66333 140.239 7.94999C145.525 13.2367 148.169 20.1267 148.169 28.62C148.169 37.8933 145.005 46.5167 138.679 54.49C132.352 62.3767 124.292 70.09 114.499 77.63H149.599V95.7H84.3386V79.19Z" fill="black" fill-opacity="0.22"/>
</svg>
