<svg width="151" height="99" viewBox="0 0 151 99" fill="none" xmlns="http://www.w3.org/2000/svg">
<path d="M0.0921877 49.25C0.0921877 34.3433 2.95219 22.6 8.67219 14.02C14.4789 5.43999 23.7955 1.14999 36.6222 1.14999C49.4489 1.14999 58.7222 5.43999 64.4422 14.02C70.2489 22.6 73.1522 34.3433 73.1522 49.25C73.1522 64.33 70.2489 76.16 64.4422 84.74C58.7222 93.32 49.4489 97.61 36.6222 97.61C23.7955 97.61 14.4789 93.32 8.67219 84.74C2.95219 76.16 0.0921877 64.33 0.0921877 49.25ZM51.3122 49.25C51.3122 40.4967 50.3589 33.78 48.4522 29.1C46.5455 24.3333 42.6022 21.95 36.6222 21.95C30.6422 21.95 26.6989 24.3333 24.7922 29.1C22.8855 33.78 21.9322 40.4967 21.9322 49.25C21.9322 55.1433 22.2789 60.04 22.9722 63.94C23.6655 67.7533 25.0522 70.8733 27.1322 73.3C29.2989 75.64 32.4622 76.81 36.6222 76.81C40.7822 76.81 43.9022 75.64 45.9822 73.3C48.1489 70.8733 49.5789 67.7533 50.2722 63.94C50.9655 60.04 51.3122 55.1433 51.3122 49.25ZM85.6769 29.88C86.0235 20.6067 89.0569 13.4567 94.7769 8.43C100.497 3.40333 108.254 0.889995 118.047 0.889995C124.547 0.889995 130.094 2.01666 134.687 4.27C139.367 6.52333 142.877 9.59999 145.217 13.5C147.644 17.4 148.857 21.7767 148.857 26.63C148.857 32.35 147.427 37.03 144.567 40.67C141.707 44.2233 138.37 46.65 134.557 47.95V48.47C139.497 50.1167 143.397 52.8467 146.257 56.66C149.117 60.4733 150.547 65.37 150.547 71.35C150.547 76.7233 149.29 81.49 146.777 85.65C144.35 89.7233 140.754 92.93 135.987 95.27C131.307 97.61 125.717 98.78 119.217 98.78C108.817 98.78 100.497 96.2233 94.2569 91.11C88.1035 85.9967 84.8535 78.2833 84.5069 67.97H106.087C106.174 71.7833 107.257 74.8167 109.337 77.07C111.417 79.2367 114.45 80.32 118.437 80.32C121.817 80.32 124.417 79.3667 126.237 77.46C128.144 75.4667 129.097 72.8667 129.097 69.66C129.097 65.5 127.754 62.51 125.067 60.69C122.467 58.7833 118.264 57.83 112.457 57.83H108.297V39.76H112.457C116.877 39.76 120.43 39.0233 123.117 37.55C125.89 35.99 127.277 33.26 127.277 29.36C127.277 26.24 126.41 23.8133 124.677 22.08C122.944 20.3467 120.56 19.48 117.527 19.48C114.234 19.48 111.764 20.4767 110.117 22.47C108.557 24.4633 107.647 26.9333 107.387 29.88H85.6769Z" fill="black" fill-opacity="0.22"/>
</svg>
