<svg width="163" height="97" viewBox="0 0 163 97" fill="none" xmlns="http://www.w3.org/2000/svg">
<path d="M0.958399 48.25C0.958399 33.3433 3.8184 21.6 9.5384 13.02C15.3451 4.43999 24.6617 0.149992 37.4884 0.149992C50.3151 0.149992 59.5884 4.43999 65.3084 13.02C71.1151 21.6 74.0184 33.3433 74.0184 48.25C74.0184 63.33 71.1151 75.16 65.3084 83.74C59.5884 92.32 50.3151 96.61 37.4884 96.61C24.6617 96.61 15.3451 92.32 9.5384 83.74C3.8184 75.16 0.958399 63.33 0.958399 48.25ZM52.1784 48.25C52.1784 39.4967 51.2251 32.78 49.3184 28.1C47.4117 23.3333 43.4684 20.95 37.4884 20.95C31.5084 20.95 27.5651 23.3333 25.6584 28.1C23.7517 32.78 22.7984 39.4967 22.7984 48.25C22.7984 54.1433 23.1451 59.04 23.8384 62.94C24.5317 66.7533 25.9184 69.8733 27.9984 72.3C30.1651 74.64 33.3284 75.81 37.4884 75.81C41.6484 75.81 44.7684 74.64 46.8484 72.3C49.0151 69.8733 50.4451 66.7533 51.1384 62.94C51.8317 59.04 52.1784 54.1433 52.1784 48.25ZM86.2831 80.1V62.16L127.363 3.4H152.193V60.86H162.853V80.1H152.193V97H129.963V80.1H86.2831ZM131.523 27.84L109.683 60.86H131.523V27.84Z" fill="black" fill-opacity="0.22"/>
</svg>
