<svg width="158" height="97" viewBox="0 0 158 97" fill="none" xmlns="http://www.w3.org/2000/svg">
<path d="M0.172266 48.25C0.172266 33.3433 3.03227 21.6 8.75227 13.02C14.5589 4.43999 23.8756 0.149992 36.7023 0.149992C49.5289 0.149992 58.8023 4.43999 64.5223 13.02C70.3289 21.6 73.2323 33.3433 73.2323 48.25C73.2323 63.33 70.3289 75.16 64.5223 83.74C58.8023 92.32 49.5289 96.61 36.7023 96.61C23.8756 96.61 14.5589 92.32 8.75227 83.74C3.03227 75.16 0.172266 63.33 0.172266 48.25ZM51.3923 48.25C51.3923 39.4967 50.4389 32.78 48.5323 28.1C46.6256 23.3333 42.6823 20.95 36.7023 20.95C30.7223 20.95 26.7789 23.3333 24.8723 28.1C22.9656 32.78 22.0123 39.4967 22.0123 48.25C22.0123 54.1433 22.3589 59.04 23.0523 62.94C23.7456 66.7533 25.1323 69.8733 27.2123 72.3C29.3789 74.64 32.5423 75.81 36.7023 75.81C40.8623 75.81 43.9823 74.64 46.0623 72.3C48.2289 69.8733 49.6589 66.7533 50.3523 62.94C51.0456 59.04 51.3923 54.1433 51.3923 48.25ZM151.797 21.47H111.237V39.41C112.97 37.5033 115.397 35.9433 118.517 34.73C121.637 33.5167 125.017 32.91 128.657 32.91C135.157 32.91 140.53 34.3833 144.777 37.33C149.11 40.2767 152.274 44.09 154.267 48.77C156.26 53.45 157.257 58.52 157.257 63.98C157.257 74.12 154.397 82.18 148.677 88.16C142.957 94.0533 134.897 97 124.497 97C117.564 97 111.54 95.83 106.427 93.49C101.314 91.0633 97.3703 87.7267 94.597 83.48C91.8236 79.2333 90.307 74.3367 90.047 68.79H111.757C112.277 71.4767 113.534 73.73 115.527 75.55C117.52 77.2833 120.25 78.15 123.717 78.15C127.79 78.15 130.824 76.85 132.817 74.25C134.81 71.65 135.807 68.1833 135.807 63.85C135.807 59.6033 134.767 56.3533 132.687 54.1C130.607 51.8467 127.574 50.72 123.587 50.72C120.64 50.72 118.214 51.4567 116.307 52.93C114.4 54.3167 113.144 56.18 112.537 58.52H91.087V1.97H151.797V21.47Z" fill="black" fill-opacity="0.22"/>
</svg>
