<svg xmlns="http://www.w3.org/2000/svg" xmlns:xlink="http://www.w3.org/1999/xlink" width="100" zoomAndPan="magnify" viewBox="0 0 75 74.999997" height="100" preserveAspectRatio="xMidYMid meet" version="1.0"><defs><clipPath id="3ef6e2c000"><path d="M 5.6875 1.804688 L 69.4375 1.804688 L 69.4375 73.054688 L 5.6875 73.054688 Z M 5.6875 1.804688 " clip-rule="nonzero"/></clipPath></defs><rect x="-7.5" width="90" fill="#ffffff" y="-7.5" height="89.999996" fill-opacity="1"/><rect x="-7.5" width="90" fill="#f0e6e4" y="-7.5" height="89.999996" fill-opacity="1"/><g clip-path="url(#3ef6e2c000)"><path fill="#3e2325" d="M 68.957031 2.394531 C 68.664062 2.074219 68.25 1.890625 67.816406 1.890625 L 7.335938 1.890625 C 6.898438 1.890625 6.484375 2.074219 6.191406 2.394531 C 5.898438 2.714844 5.753906 3.144531 5.792969 3.578125 L 11.242188 64.609375 C 11.296875 65.246094 11.742188 65.785156 12.359375 65.960938 L 37.144531 73.039062 C 37.28125 73.078125 37.421875 73.097656 37.566406 73.097656 C 37.710938 73.097656 37.855469 73.078125 37.992188 73.039062 L 62.796875 65.960938 C 63.414062 65.785156 63.855469 65.246094 63.914062 64.609375 L 69.359375 3.578125 C 69.398438 3.144531 69.25 2.714844 68.957031 2.394531 Z M 55.914062 23.4375 L 26.796875 23.4375 L 27.488281 31.316406 L 55.210938 31.316406 L 53.132812 54.597656 L 37.566406 59.304688 L 37.414062 59.257812 L 22.023438 54.597656 L 21.183594 45.109375 L 28.722656 45.109375 L 29.050781 48.792969 L 37.652344 50.59375 L 46.101562 48.789062 L 47 38.828125 L 20.617188 38.828125 L 18.574219 15.90625 L 56.589844 15.90625 Z M 55.914062 23.4375 " fill-opacity="1" fill-rule="nonzero"/></g></svg>