<svg xmlns="http://www.w3.org/2000/svg" xmlns:xlink="http://www.w3.org/1999/xlink" width="100" zoomAndPan="magnify" viewBox="0 0 75 74.999997" height="100" preserveAspectRatio="xMidYMid meet" version="1.0"><defs><clipPath id="3e0e8750ed"><path d="M 1.613281 7 L 44 7 L 44 54 L 1.613281 54 Z M 1.613281 7 " clip-rule="nonzero"/></clipPath><clipPath id="e5dd40bc71"><path d="M 1.613281 1.613281 L 44 1.613281 L 44 14 L 1.613281 14 Z M 1.613281 1.613281 " clip-rule="nonzero"/></clipPath><clipPath id="3aaf3090d0"><path d="M 1.613281 17 L 44 17 L 44 29 L 1.613281 29 Z M 1.613281 17 " clip-rule="nonzero"/></clipPath><clipPath id="98b7c7871c"><path d="M 1.613281 32 L 34 32 L 34 44 L 1.613281 44 Z M 1.613281 32 " clip-rule="nonzero"/></clipPath><clipPath id="1e3cf1d618"><path d="M 28 28 L 73.613281 28 L 73.613281 73.613281 L 28 73.613281 Z M 28 28 " clip-rule="nonzero"/></clipPath></defs><rect x="-7.5" width="90" fill="#ffffff" y="-7.5" height="89.999996" fill-opacity="1"/><rect x="-7.5" width="90" fill="#f0e6e4" y="-7.5" height="89.999996" fill-opacity="1"/><g clip-path="url(#3e0e8750ed)"><path fill="#54383a" d="M 1.613281 7.800781 L 1.613281 47.394531 C 1.613281 50.8125 11.027344 53.582031 22.648438 53.582031 C 24.835938 53.582031 26.953125 53.480469 28.945312 53.308594 L 43.683594 30.109375 L 43.683594 7.800781 L 1.613281 7.800781 " fill-opacity="1" fill-rule="nonzero"/></g><g clip-path="url(#e5dd40bc71)"><path fill="#3e2325" d="M 43.683594 7.800781 C 43.683594 11.214844 34.265625 13.984375 22.648438 13.984375 C 11.03125 13.984375 1.613281 11.214844 1.613281 7.800781 C 1.613281 4.382812 11.03125 1.613281 22.648438 1.613281 C 34.265625 1.613281 43.683594 4.382812 43.683594 7.800781 " fill-opacity="1" fill-rule="nonzero"/></g><g clip-path="url(#3aaf3090d0)"><path fill="#3e2325" d="M 1.613281 22.648438 C 1.613281 26.0625 11.03125 28.832031 22.648438 28.832031 C 34.265625 28.832031 43.683594 26.0625 43.683594 22.648438 L 43.683594 17.699219 C 43.683594 21.113281 34.265625 23.882812 22.648438 23.882812 C 11.03125 23.882812 1.613281 21.113281 1.613281 17.699219 L 1.613281 22.648438 " fill-opacity="1" fill-rule="nonzero"/></g><g clip-path="url(#98b7c7871c)"><path fill="#3e2325" d="M 30.261719 43.269531 C 27.890625 43.53125 25.328125 43.683594 22.648438 43.683594 C 11.027344 43.683594 1.613281 40.914062 1.613281 37.496094 L 1.613281 32.546875 C 1.613281 35.964844 11.027344 38.734375 22.648438 38.734375 C 26.480469 38.734375 30.085938 38.4375 33.179688 37.90625 L 30.261719 43.269531 " fill-opacity="1" fill-rule="nonzero"/></g><g clip-path="url(#1e3cf1d618)"><path fill="#3e2325" d="M 73.378906 51.105469 C 73.378906 63.40625 63.40625 73.378906 51.105469 73.378906 C 38.804688 73.378906 28.832031 63.40625 28.832031 51.105469 C 28.832031 38.804688 38.804688 28.832031 51.105469 28.832031 C 63.40625 28.832031 73.378906 38.804688 73.378906 51.105469 " fill-opacity="1" fill-rule="nonzero"/></g><path fill="#ffffff" d="M 39.96875 44.917969 C 41.332031 44.917969 42.445312 46.03125 42.445312 47.394531 C 42.445312 48.074219 43 48.632812 43.683594 48.632812 C 44.363281 48.632812 44.917969 48.074219 44.917969 47.394531 C 44.917969 44.664062 42.699219 42.445312 39.96875 42.445312 C 37.238281 42.445312 35.019531 44.664062 35.019531 47.394531 C 35.019531 50.125 37.238281 52.34375 39.96875 52.34375 C 41.332031 52.34375 42.445312 53.453125 42.445312 54.816406 C 42.445312 56.179688 41.332031 57.292969 39.96875 57.292969 C 38.605469 57.292969 37.496094 56.179688 37.496094 54.816406 C 37.496094 54.136719 36.941406 53.582031 36.257812 53.582031 C 35.578125 53.582031 35.019531 54.136719 35.019531 54.816406 C 35.019531 57.550781 37.238281 59.765625 39.96875 59.765625 C 42.699219 59.765625 44.917969 57.550781 44.917969 54.816406 C 44.917969 52.085938 42.699219 49.867188 39.96875 49.867188 C 38.605469 49.867188 37.496094 48.757812 37.496094 47.394531 C 37.496094 46.03125 38.605469 44.917969 39.96875 44.917969 " fill-opacity="1" fill-rule="nonzero"/><path fill="#ffffff" d="M 54.609375 54.132812 C 54.234375 53.5625 53.464844 53.410156 52.894531 53.789062 C 52.324219 54.164062 52.167969 54.933594 52.550781 55.503906 L 53.53125 56.972656 C 53.175781 57.171875 52.773438 57.292969 52.34375 57.292969 C 50.980469 57.292969 49.867188 56.179688 49.867188 54.816406 L 49.867188 47.394531 C 49.867188 46.03125 50.980469 44.917969 52.34375 44.917969 C 53.707031 44.917969 54.816406 46.03125 54.816406 47.394531 L 54.816406 54.445312 Z M 52.34375 42.445312 C 49.613281 42.445312 47.394531 44.664062 47.394531 47.394531 L 47.394531 54.816406 C 47.394531 57.550781 49.613281 59.765625 52.34375 59.765625 C 53.285156 59.765625 54.15625 59.492188 54.90625 59.03125 L 55.027344 59.214844 C 55.261719 59.574219 55.652344 59.765625 56.054688 59.765625 C 56.292969 59.765625 56.527344 59.699219 56.742188 59.558594 C 57.3125 59.183594 57.464844 58.414062 57.085938 57.84375 L 56.65625 57.199219 C 57.046875 56.492188 57.292969 55.6875 57.292969 54.816406 L 57.292969 47.394531 C 57.292969 44.664062 55.074219 42.445312 52.34375 42.445312 " fill-opacity="1" fill-rule="nonzero"/><path fill="#ffffff" d="M 65.953125 57.292969 L 62.242188 57.292969 L 62.242188 43.683594 C 62.242188 43 61.6875 42.445312 61.003906 42.445312 C 60.324219 42.445312 59.765625 43 59.765625 43.683594 L 59.765625 58.53125 C 59.765625 59.210938 60.324219 59.765625 61.003906 59.765625 L 65.953125 59.765625 C 66.636719 59.765625 67.191406 59.210938 67.191406 58.53125 C 67.191406 57.847656 66.636719 57.292969 65.953125 57.292969 " fill-opacity="1" fill-rule="nonzero"/></svg>