<svg xmlns="http://www.w3.org/2000/svg" xmlns:xlink="http://www.w3.org/1999/xlink" width="100" zoomAndPan="magnify" viewBox="0 0 75 74.999997" height="100" preserveAspectRatio="xMidYMid meet" version="1.0"><defs><clipPath id="fb9fa12007"><path d="M 0.84375 0 L 75 0 L 75 75 L 0.84375 75 Z M 0.84375 0 " clip-rule="nonzero"/></clipPath><clipPath id="17e9d9f5ac"><path d="M 0 2 L 38 2 L 38 73 L 0 73 Z M 0 2 " clip-rule="nonzero"/></clipPath><clipPath id="b26ffce5ac"><path d="M 18.679688 -2.457031 L 55.886719 8.371094 L 37.195312 72.609375 L -0.0117188 61.785156 Z M 18.679688 -2.457031 " clip-rule="nonzero"/></clipPath><clipPath id="60eeddfa69"><path d="M 37.285156 2.957031 L 37.207031 72.570312 L 0 61.742188 Z M 37.285156 2.957031 " clip-rule="nonzero"/></clipPath><clipPath id="be01d14236"><path d="M 0 0.878906 L 37.441406 0.878906 L 37.441406 70.71875 L 0 70.71875 Z M 0 0.878906 " clip-rule="nonzero"/></clipPath><clipPath id="422a965ff2"><path d="M 18.679688 -4.457031 L 55.886719 6.371094 L 37.195312 70.609375 L -0.0117188 59.785156 Z M 18.679688 -4.457031 " clip-rule="nonzero"/></clipPath><clipPath id="75ea17ec8e"><path d="M 37.285156 0.957031 L 37.207031 70.570312 L 0 59.742188 Z M 37.285156 0.957031 " clip-rule="nonzero"/></clipPath><clipPath id="ec843b9e9d"><rect x="0" width="38" y="0" height="71"/></clipPath></defs><rect x="-7.5" width="90" fill="#ffffff" y="-7.5" height="89.999996" fill-opacity="1"/><rect x="-7.5" width="90" fill="#f0e6e4" y="-7.5" height="89.999996" fill-opacity="1"/><g clip-path="url(#fb9fa12007)"><path fill="#3e2325" d="M 1.488281 60.554688 L 36.675781 1.808594 L 36.675781 1.339844 C 36.675781 0.648438 37.234375 0.0898438 37.921875 0.0898438 C 38.609375 0.0898438 39.167969 0.648438 39.167969 1.339844 L 39.167969 1.808594 L 74.355469 60.554688 C 74.773438 60.710938 74.992188 61.171875 74.847656 61.597656 C 74.761719 61.851562 74.566406 62.035156 74.328125 62.117188 L 39.070312 74.105469 C 38.882812 74.554688 38.4375 74.867188 37.921875 74.867188 C 37.40625 74.867188 36.960938 74.554688 36.773438 74.105469 L 1.515625 62.117188 C 1.082031 61.96875 0.847656 61.5 0.996094 61.066406 C 1.078125 60.820312 1.265625 60.636719 1.488281 60.554688 Z M 36.675781 72.320312 L 36.675781 50.34375 L 4.359375 61.332031 Z M 36.675781 48.589844 L 36.675781 5.035156 L 3.914062 59.730469 Z M 39.167969 5.035156 L 39.167969 48.589844 L 71.929688 59.726562 Z M 39.167969 50.34375 L 39.167969 72.320312 L 71.484375 61.332031 Z M 39.167969 50.34375 " fill-opacity="1" fill-rule="nonzero"/></g><g clip-path="url(#17e9d9f5ac)"><g clip-path="url(#b26ffce5ac)"><g clip-path="url(#60eeddfa69)"><g transform="matrix(1, 0, 0, 1, 0, 2)"><g clip-path="url(#ec843b9e9d)"><g clip-path="url(#be01d14236)"><g clip-path="url(#422a965ff2)"><g clip-path="url(#75ea17ec8e)"><path fill="#3e2325" d="M 18.679688 -4.457031 L 55.886719 6.371094 L 37.195312 70.609375 L -0.0117188 59.785156 Z M 18.679688 -4.457031 " fill-opacity="1" fill-rule="nonzero"/></g></g></g></g></g></g></g></g></svg>