<svg xmlns="http://www.w3.org/2000/svg" xmlns:xlink="http://www.w3.org/1999/xlink" width="100" zoomAndPan="magnify" viewBox="0 0 75 74.999997" height="100" preserveAspectRatio="xMidYMid meet" version="1.0"><rect x="-7.5" width="90" fill="#ffffff" y="-7.5" height="89.999996" fill-opacity="1"/><rect x="-7.5" width="90" fill="#f0e6e4" y="-7.5" height="89.999996" fill-opacity="1"/><path fill="#3e2325" d="M 6.390625 35.167969 L 14.070312 35.167969 L 14.070312 28.183594 L 6.390625 28.183594 Z M 6.390625 35.167969 " fill-opacity="1" fill-rule="nonzero"/><path fill="#3e2325" d="M 74.015625 34.519531 C 74.1875 34.222656 74.78125 32.964844 75 32.507812 L 73.457031 31.460938 C 71.78125 30.324219 67.925781 29.910156 64.960938 30.472656 C 64.578125 27.652344 63.023438 25.191406 60.1875 22.984375 L 58.558594 21.890625 L 57.476562 23.535156 C 55.339844 26.804688 54.757812 32.1875 57.050781 35.738281 C 56.039062 36.292969 54.050781 37.042969 51.425781 36.996094 L 0.90625 36.996094 C -0.101562 42.96875 1.582031 50.730469 6.023438 56.058594 C 10.328125 61.222656 16.792969 63.84375 25.238281 63.84375 C 43.53125 63.84375 57.066406 55.320312 63.402344 39.832031 C 65.886719 39.878906 71.257812 39.847656 74.015625 34.519531 Z M 74.015625 34.519531 " fill-opacity="1" fill-rule="nonzero"/><path fill="#3e2325" d="M 15.457031 28.183594 L 23.136719 28.183594 L 23.136719 35.167969 L 15.457031 35.167969 Z M 15.457031 28.183594 " fill-opacity="1" fill-rule="nonzero"/><path fill="#3e2325" d="M 24.53125 28.183594 L 32.210938 28.183594 L 32.210938 35.167969 L 24.53125 35.167969 Z M 24.53125 28.183594 " fill-opacity="1" fill-rule="nonzero"/><path fill="#3e2325" d="M 42.695312 28.183594 L 50.375 28.183594 L 50.375 35.167969 L 42.695312 35.167969 Z M 42.695312 28.183594 " fill-opacity="1" fill-rule="nonzero"/><path fill="#3e2325" d="M 15.457031 19.703125 L 23.136719 19.703125 L 23.136719 26.769531 L 15.457031 26.769531 Z M 15.457031 19.703125 " fill-opacity="1" fill-rule="nonzero"/><path fill="#3e2325" d="M 33.609375 28.195312 L 41.289062 28.195312 L 41.289062 35.179688 L 33.609375 35.179688 Z M 33.609375 28.195312 " fill-opacity="1" fill-rule="nonzero"/><path fill="#3e2325" d="M 33.609375 19.703125 L 41.289062 19.703125 L 41.289062 26.769531 L 33.609375 26.769531 Z M 33.609375 19.703125 " fill-opacity="1" fill-rule="nonzero"/><path fill="#3e2325" d="M 33.609375 11.15625 L 41.289062 11.15625 L 41.289062 18.292969 L 33.609375 18.292969 Z M 33.609375 11.15625 " fill-opacity="1" fill-rule="nonzero"/><path fill="#3e2325" d="M 24.53125 19.703125 L 32.210938 19.703125 L 32.210938 26.769531 L 24.53125 26.769531 Z M 24.53125 19.703125 " fill-opacity="1" fill-rule="nonzero"/></svg>