<svg xmlns="http://www.w3.org/2000/svg" xmlns:xlink="http://www.w3.org/1999/xlink" width="100" zoomAndPan="magnify" viewBox="0 0 75 74.999997" height="100" preserveAspectRatio="xMidYMid meet" version="1.0"><defs><clipPath id="030598dcb4"><path d="M 3 1.261719 L 72.503906 1.261719 L 72.503906 74 L 3 74 Z M 3 1.261719 " clip-rule="nonzero"/></clipPath></defs><rect x="-7.5" width="90" fill="#ffffff" y="-7.5" height="89.999996" fill-opacity="1"/><rect x="-7.5" width="90" fill="#f0e6e4" y="-7.5" height="89.999996" fill-opacity="1"/><path fill="#3e2325" d="M 67.457031 45.929688 C 67.457031 45.933594 67.453125 45.9375 67.449219 45.9375 C 67.445312 45.9375 67.445312 45.933594 67.445312 45.929688 C 67.445312 45.925781 67.445312 45.925781 67.449219 45.925781 C 67.453125 45.925781 67.457031 45.925781 67.457031 45.929688 Z M 67.457031 45.929688 " fill-opacity="1" fill-rule="nonzero"/><path fill="#54383a" d="M 58.582031 45.363281 L 58.585938 45.367188 L 58.585938 45.371094 L 58.578125 45.375 C 58.144531 45.53125 57.785156 45.597656 57.480469 45.734375 C 57.171875 45.855469 56.925781 46.082031 56.777344 46.367188 L 56.773438 46.375 C 56.589844 46.71875 56.425781 47.328125 56.476562 48.367188 C 56.597656 48.457031 56.746094 48.527344 56.902344 48.574219 L 56.914062 48.578125 C 57.417969 48.734375 58.265625 48.835938 59.210938 48.820312 C 61.097656 48.800781 63.421875 48.351562 64.65625 47.773438 C 65.71875 47.265625 66.628906 46.65625 67.441406 45.929688 C 63.320312 46.792969 60.992188 46.5625 59.566406 45.964844 C 59.195312 45.804688 58.867188 45.605469 58.582031 45.363281 Z M 58.582031 45.363281 " fill-opacity="1" fill-rule="nonzero"/><path fill="#54383a" d="M 54.355469 13.691406 L 54.375 13.71875 L 54.394531 13.742188 Z M 54.355469 13.691406 " fill-opacity="1" fill-rule="nonzero"/><path fill="#54383a" d="M 38.59375 59.054688 C 38.589844 58.976562 38.59375 58.898438 38.589844 58.824219 C 38.589844 58.796875 38.589844 58.773438 38.589844 58.746094 Z M 38.59375 59.054688 " fill-opacity="1" fill-rule="nonzero"/><path fill="#54383a" d="M 35.433594 45.835938 C 35.261719 45.75 35.058594 45.6875 34.839844 45.65625 L 34.832031 45.65625 L 34.832031 45.652344 L 34.769531 45.652344 C 34.613281 45.667969 34.382812 45.722656 33.941406 46.214844 C 32.910156 47.382812 32.550781 48.117188 31.703125 48.800781 C 30.851562 49.484375 29.75 49.851562 27.542969 50.308594 C 26.847656 50.453125 26.445312 50.609375 26.183594 50.738281 C 26.269531 50.8125 26.261719 50.828125 26.390625 50.898438 C 26.710938 51.078125 27.125 51.238281 27.460938 51.324219 C 28.40625 51.5625 29.964844 51.84375 31.585938 51.5625 C 33.210938 51.28125 34.898438 50.496094 36.339844 48.449219 C 36.589844 48.097656 36.617188 47.574219 36.410156 47.015625 C 36.207031 46.453125 35.753906 45.972656 35.433594 45.835938 Z M 35.433594 45.835938 " fill-opacity="1" fill-rule="nonzero"/><path fill="#54383a" d="M 47.527344 5.757812 L 47.355469 5.792969 C 47.414062 5.78125 47.476562 5.773438 47.535156 5.761719 C 47.53125 5.761719 47.53125 5.757812 47.527344 5.757812 Z M 47.527344 5.757812 " fill-opacity="1" fill-rule="nonzero"/><path fill="#54383a" d="M 55.859375 21.921875 C 53.847656 21.949219 52.722656 22.472656 52.128906 23.160156 C 51.292969 24.132812 51.214844 25.839844 51.734375 27.941406 C 52.253906 30.046875 53.320312 32.402344 54.328125 34.355469 C 54.832031 35.335938 55.320312 36.214844 55.710938 36.933594 C 56.105469 37.652344 56.398438 38.160156 56.574219 38.59375 C 56.734375 38.996094 56.917969 39.347656 57.101562 39.679688 C 57.878906 38.015625 58.015625 36.382812 57.941406 34.683594 C 57.835938 32.578125 57.351562 30.425781 57.425781 28.246094 C 57.503906 25.695312 58.003906 24.039062 58.042969 22.066406 C 57.386719 21.976562 56.628906 21.921875 55.859375 21.921875 Z M 56.230469 23.4375 L 56.226562 23.460938 C 56.226562 23.472656 56.226562 23.480469 56.226562 23.492188 C 56.226562 23.628906 56.1875 23.761719 56.117188 23.871094 L 56.121094 23.867188 C 56.027344 24.039062 55.921875 24.1875 55.796875 24.316406 C 55.503906 24.640625 55.109375 24.871094 54.667969 24.949219 L 54.65625 24.949219 C 54.589844 24.960938 54.519531 24.960938 54.445312 24.960938 C 54.066406 24.960938 53.71875 24.84375 53.4375 24.640625 L 53.441406 24.640625 C 53.296875 24.539062 53.167969 24.421875 53.0625 24.292969 L 53.058594 24.289062 C 52.964844 24.1875 52.898438 24.054688 52.871094 23.914062 L 52.871094 23.910156 C 52.871094 23.894531 52.871094 23.878906 52.871094 23.863281 C 52.871094 23.734375 52.917969 23.613281 53 23.523438 C 53.09375 23.414062 53.207031 23.324219 53.339844 23.257812 L 53.347656 23.253906 C 53.628906 23.09375 54.015625 22.972656 54.449219 22.910156 C 54.609375 22.882812 54.769531 22.871094 54.921875 22.871094 L 54.921875 22.878906 L 55.066406 22.878906 C 55.261719 22.882812 55.441406 22.90625 55.601562 22.945312 C 55.757812 22.980469 55.898438 23.035156 56.007812 23.109375 C 56.117188 23.183594 56.203125 23.296875 56.230469 23.4375 Z M 56.230469 23.4375 " fill-opacity="1" fill-rule="nonzero"/><path fill="#54383a" d="M 22.902344 35.121094 C 22.902344 34.582031 22.945312 34.054688 23.023438 33.535156 L 23.015625 33.59375 C 23.324219 31.378906 23.363281 29.3125 23.328125 27.675781 C 23.292969 26.082031 23.179688 25.023438 23.179688 24.359375 C 23.179688 24.351562 23.179688 24.34375 23.179688 24.332031 C 23.179688 24.324219 23.179688 24.3125 23.179688 24.304688 L 23.179688 24.289062 L 23.175781 24.269531 C 23.175781 24.261719 23.175781 24.257812 23.175781 24.253906 C 23.175781 20.707031 23.796875 17.308594 24.925781 14.15625 C 25.757812 11.925781 26.992188 9.667969 28.839844 7.832031 C 27.019531 7.230469 23.796875 6.304688 20.308594 6.132812 C 19.972656 6.113281 19.578125 6.101562 19.1875 6.101562 L 19.183594 6.101562 L 19.183594 6.105469 C 18.808594 6.105469 18.433594 6.117188 18.0625 6.140625 C 15.074219 6.3125 12.246094 7.191406 10.226562 9.359375 C 8.203125 11.527344 6.871094 15.082031 7.160156 20.964844 C 7.21875 22.078125 7.695312 25.199219 8.515625 28.90625 C 9.339844 32.613281 10.5 36.976562 11.894531 40.832031 C 13.292969 44.683594 14.988281 48.039062 16.597656 49.625 C 17.410156 50.417969 18.113281 50.738281 18.753906 50.714844 C 19.394531 50.683594 20.167969 50.308594 21.109375 49.160156 C 22.964844 46.902344 24.714844 44.90625 26.523438 42.964844 L 26.464844 43.027344 C 24.277344 41.097656 22.902344 38.273438 22.902344 35.121094 Z M 22.902344 35.121094 " fill-opacity="1" fill-rule="nonzero"/><path fill="#54383a" d="M 38.832031 5.957031 L 38.832031 5.949219 C 35.332031 5.960938 32.828125 7.027344 30.921875 8.628906 C 28.960938 10.285156 27.648438 12.554688 26.78125 14.875 C 25.753906 17.628906 25.402344 20.292969 25.261719 22.101562 L 25.300781 22.078125 C 26.359375 21.480469 27.746094 20.882812 29.230469 20.535156 C 30.714844 20.1875 32.316406 20.082031 33.765625 20.652344 C 35.214844 21.21875 36.410156 22.558594 36.847656 24.589844 C 38.925781 34.339844 36.199219 37.96875 35.191406 40.707031 C 34.871094 41.492188 34.539062 42.503906 34.261719 43.539062 L 34.214844 43.738281 C 34.339844 43.707031 34.46875 43.671875 34.59375 43.660156 C 35.304688 43.601562 35.859375 43.839844 36.191406 43.984375 C 37.203125 44.410156 37.898438 45.300781 38.269531 46.320312 C 38.371094 46.585938 38.4375 46.875 38.480469 47.171875 C 38.519531 47.273438 38.539062 47.390625 38.539062 47.515625 C 38.539062 47.527344 38.539062 47.539062 38.539062 47.550781 C 38.492188 49.046875 38.464844 50.804688 38.464844 52.574219 C 38.464844 54.664062 38.503906 56.75 38.582031 58.824219 C 38.652344 60.402344 38.75 61.796875 38.875 62.894531 C 39.003906 64.015625 39.179688 64.863281 39.296875 65.148438 C 39.671875 66.109375 40.226562 67.363281 41.226562 68.214844 C 42.226562 69.066406 43.660156 69.636719 46.28125 69.066406 C 48.554688 68.574219 49.957031 67.886719 50.894531 66.902344 C 51.832031 65.917969 52.386719 64.546875 52.742188 62.445312 C 53.28125 59.300781 54.355469 50.183594 54.488281 48.46875 C 54.425781 47.171875 54.617188 46.179688 55.027344 45.421875 C 55.445312 44.644531 56.097656 44.167969 56.65625 43.910156 C 56.941406 43.78125 57.203125 43.695312 57.417969 43.628906 C 57.15625 43.25 56.917969 42.933594 56.671875 42.625 L 56.699219 42.65625 C 55.925781 41.710938 55.261719 40.625 54.761719 39.453125 L 54.730469 39.367188 C 54.425781 38.742188 54.171875 38.265625 53.90625 37.804688 L 53.96875 37.921875 C 53.578125 37.203125 53.078125 36.304688 52.558594 35.292969 C 51.515625 33.273438 50.382812 30.824219 49.792969 28.4375 C 49.207031 26.050781 49.125 23.585938 50.625 21.84375 C 51.957031 20.300781 54.296875 19.660156 57.800781 20.019531 C 57.699219 19.703125 57.636719 19.445312 57.460938 19.023438 C 56.605469 17.019531 55.578125 15.289062 54.359375 13.71875 C 51.386719 9.878906 46.582031 6.078125 39.160156 5.957031 Z M 38.832031 5.957031 " fill-opacity="1" fill-rule="nonzero"/><path fill="#54383a" d="M 25.222656 24.527344 L 25.226562 24.527344 L 25.234375 24.515625 Z M 25.222656 24.527344 " fill-opacity="1" fill-rule="nonzero"/><path fill="#54383a" d="M 29.621094 22.5 L 29.652344 22.5 L 29.675781 22.488281 Z M 29.621094 22.5 " fill-opacity="1" fill-rule="nonzero"/><path fill="#54383a" d="M 33.332031 40 C 34.535156 36.726562 36.898438 34.335938 34.910156 25.011719 C 34.582031 23.484375 33.9375 22.867188 33.050781 22.519531 C 32.621094 22.359375 32.121094 22.265625 31.597656 22.265625 C 31.5625 22.265625 31.527344 22.265625 31.496094 22.265625 L 31.5 22.265625 C 30.863281 22.273438 30.246094 22.355469 29.652344 22.5 C 28.394531 22.816406 27.289062 23.265625 26.257812 23.839844 C 25.871094 24.050781 25.539062 24.273438 25.226562 24.523438 L 25.171875 24.578125 C 25.1875 25.011719 25.273438 26.074219 25.308594 27.632812 C 25.34375 29.339844 25.300781 31.519531 24.976562 33.875 C 24.269531 38.996094 27.941406 43.234375 32.253906 43.242188 C 32.507812 42.191406 32.921875 41.125 33.332031 40 Z M 30.785156 25.121094 C 30.644531 24.976562 30.53125 24.816406 30.4375 24.640625 L 30.429688 24.628906 C 30.355469 24.5 30.308594 24.347656 30.308594 24.183594 C 30.308594 24.152344 30.3125 24.125 30.316406 24.09375 L 30.316406 24.097656 C 30.359375 23.773438 30.625 23.605469 30.878906 23.511719 C 31.113281 23.433594 31.378906 23.390625 31.660156 23.390625 C 31.703125 23.390625 31.742188 23.390625 31.792969 23.394531 L 31.789062 23.382812 C 31.945312 23.382812 32.113281 23.398438 32.277344 23.421875 C 32.730469 23.484375 33.136719 23.605469 33.441406 23.785156 C 33.59375 23.871094 33.726562 23.972656 33.832031 24.101562 C 33.933594 24.21875 33.996094 24.371094 33.996094 24.542969 C 33.996094 24.566406 33.996094 24.589844 33.992188 24.617188 L 33.992188 24.613281 C 33.960938 24.792969 33.882812 24.949219 33.769531 25.074219 C 33.648438 25.222656 33.511719 25.351562 33.355469 25.460938 L 33.347656 25.460938 C 33.046875 25.683594 32.664062 25.816406 32.253906 25.816406 C 32.175781 25.816406 32.09375 25.808594 32.015625 25.800781 L 32.023438 25.800781 C 31.527344 25.71875 31.101562 25.472656 30.785156 25.121094 Z M 30.785156 25.121094 " fill-opacity="1" fill-rule="nonzero"/><path fill="#54383a" d="M 26.195312 23.871094 C 26.21875 23.859375 26.238281 23.851562 26.257812 23.839844 C 26.261719 23.839844 26.261719 23.835938 26.265625 23.832031 Z M 26.195312 23.871094 " fill-opacity="1" fill-rule="nonzero"/><path fill="#54383a" d="M 55.957031 12.496094 C 57.253906 14.160156 58.375 16.050781 59.242188 18.082031 L 59.304688 18.246094 C 59.632812 19.035156 59.851562 19.703125 59.972656 20.222656 C 60.035156 20.484375 60.078125 20.703125 60.09375 20.929688 C 60.097656 21.042969 60.105469 21.160156 60.058594 21.359375 C 60.058594 21.371094 60.042969 21.390625 60.039062 21.398438 C 60.128906 24.023438 59.484375 25.800781 59.410156 28.304688 C 59.351562 30.121094 59.808594 32.25 59.921875 34.578125 C 60.03125 36.765625 59.769531 39.164062 58.363281 41.523438 C 58.484375 41.667969 58.589844 41.808594 58.703125 41.953125 C 62.414062 36.039062 65.085938 29.496094 66.511719 23.917969 C 67.277344 20.914062 67.679688 18.191406 67.71875 16.035156 C 67.746094 13.878906 67.347656 12.316406 66.84375 11.664062 C 62.875 6.523438 57.503906 5.214844 53 5.179688 L 53 5.183594 L 52.570312 5.183594 C 50.832031 5.210938 49.15625 5.410156 47.535156 5.761719 C 51.214844 7.414062 54 9.960938 55.957031 12.496094 Z M 55.957031 12.496094 " fill-opacity="1" fill-rule="nonzero"/><g clip-path="url(#030598dcb4)"><path fill="#3e2325" d="M 39.324219 2.03125 L 39.296875 2.03125 C 35.808594 1.972656 32.816406 2.828125 30.402344 4.253906 C 28.023438 3.417969 23.089844 1.980469 17.890625 2.265625 C 14.269531 2.46875 10.316406 3.582031 7.386719 6.710938 C 4.46875 9.839844 2.925781 14.683594 3.25 21.269531 C 3.339844 23.089844 3.851562 26.050781 4.699219 29.890625 C 5.550781 33.730469 6.742188 38.226562 8.230469 42.324219 C 9.71875 46.429688 11.347656 50.109375 13.894531 52.613281 C 15.167969 53.871094 16.921875 54.921875 18.984375 54.835938 C 20.433594 54.777344 21.742188 54.132812 22.875 53.183594 C 23.425781 53.917969 24.011719 54.238281 24.546875 54.535156 C 25.222656 54.910156 25.875 55.164062 26.554688 55.332031 C 27.777344 55.640625 29.867188 56.050781 32.316406 55.628906 C 33.152344 55.488281 34.03125 55.214844 34.90625 54.820312 C 34.9375 55.808594 34.976562 56.777344 35.011719 57.757812 C 35.136719 60.859375 35.210938 63.722656 36.128906 66.238281 C 36.277344 66.648438 36.683594 68.761719 38.28125 70.625 C 39.875 72.496094 43.007812 73.660156 46.570312 72.886719 C 49.085938 72.34375 52.28125 71.359375 54.410156 68.300781 C 56.507812 65.277344 57.453125 60.9375 57.644531 53.898438 C 57.691406 53.519531 57.746094 53.195312 57.804688 52.894531 L 58.304688 52.9375 L 58.363281 52.9375 C 61.046875 53.0625 63.957031 52.675781 66.390625 51.53125 C 68.542969 50.519531 70.171875 49.5 71.363281 47.6875 C 71.65625 47.238281 71.980469 46.699219 72.070312 45.761719 C 72.160156 44.828125 71.632812 43.367188 70.75 42.695312 C 68.988281 41.339844 67.882812 41.855469 66.699219 42.105469 C 65.640625 42.351562 64.421875 42.507812 63.167969 42.539062 L 63.144531 42.539062 C 66.5625 36.710938 69.015625 30.519531 70.414062 25.039062 C 71.246094 21.804688 71.707031 18.820312 71.746094 16.210938 C 71.785156 13.605469 71.574219 11.296875 70.027344 9.296875 C 65.203125 3.058594 58.421875 1.332031 53.171875 1.273438 C 53.011719 1.269531 52.847656 1.265625 52.683594 1.269531 L 52.683594 1.261719 C 49.828125 1.285156 47.078125 1.714844 44.476562 2.484375 L 44.351562 2.527344 C 42.851562 2.246094 41.105469 2.066406 39.324219 2.03125 Z M 46.417969 3.941406 C 48.253906 3.488281 50.359375 3.214844 52.527344 3.1875 L 52.546875 3.1875 L 52.550781 3.175781 C 57.515625 3.128906 63.855469 4.539062 68.410156 10.429688 C 69.433594 11.753906 69.738281 13.6875 69.703125 16.070312 C 69.664062 18.453125 69.230469 21.304688 68.433594 24.425781 C 66.886719 30.476562 63.972656 37.527344 59.863281 43.855469 C 59.996094 43.953125 60.152344 44.042969 60.3125 44.105469 L 60.328125 44.113281 C 61.1875 44.472656 63.140625 44.78125 67.042969 43.96875 C 68.027344 43.757812 68.742188 43.617188 69.488281 44.195312 C 69.824219 44.480469 70.035156 44.90625 70.035156 45.382812 C 70.035156 45.414062 70.035156 45.441406 70.03125 45.472656 L 70.03125 45.46875 C 69.988281 45.851562 69.851562 46.191406 69.644531 46.476562 C 68.890625 47.621094 67.402344 48.710938 65.496094 49.605469 C 63.808594 50.402344 61.386719 50.816406 59.238281 50.839844 C 58.160156 50.855469 57.171875 50.769531 56.324219 50.503906 L 56.273438 50.484375 C 55.945312 53.65625 55.195312 59.925781 54.707031 62.785156 C 54.320312 65.089844 53.636719 66.921875 52.332031 68.292969 C 51.027344 69.664062 49.1875 70.492188 46.707031 71.03125 C 43.636719 71.699219 41.398438 70.980469 39.953125 69.75 C 38.515625 68.523438 37.855469 66.894531 37.457031 65.894531 C 37.183594 65.207031 37.042969 64.3125 36.90625 63.121094 C 36.769531 61.929688 36.667969 60.472656 36.601562 58.828125 C 36.535156 57.15625 36.5 55.191406 36.5 53.21875 C 36.5 52.570312 36.503906 51.921875 36.511719 51.273438 C 35.273438 52.421875 33.710938 53.230469 31.972656 53.539062 L 31.917969 53.550781 C 29.878906 53.898438 28.0625 53.554688 26.976562 53.28125 C 26.398438 53.132812 25.894531 52.925781 25.421875 52.667969 C 24.925781 52.398438 24.453125 52.089844 24.132812 51.488281 C 24.007812 51.257812 23.933594 50.980469 23.933594 50.6875 C 23.933594 50.570312 23.945312 50.453125 23.96875 50.34375 C 24.078125 49.945312 24.300781 49.601562 24.609375 49.363281 L 24.613281 49.359375 C 25.199219 48.878906 25.972656 48.609375 27.144531 48.363281 C 29.269531 47.917969 30.011719 47.617188 30.464844 47.253906 C 30.847656 46.941406 31.285156 46.3125 32.050781 45.390625 C 32.046875 45.363281 32.046875 45.320312 32.042969 45.277344 L 32.042969 45.269531 C 30.59375 45.226562 29.242188 44.835938 28.0625 44.171875 L 28.109375 44.195312 C 27.664062 44.671875 25.398438 47.09375 22.636719 50.460938 C 21.476562 51.867188 20.191406 52.675781 18.835938 52.734375 C 17.484375 52.792969 16.257812 52.101562 15.214844 51.082031 C 13.136719 49.035156 11.476562 45.515625 10.03125 41.539062 C 8.585938 37.5625 7.414062 33.136719 6.578125 29.363281 C 5.738281 25.589844 5.246094 22.546875 5.175781 21.078125 C 4.863281 14.84375 6.304688 10.644531 8.773438 7.992188 C 11.25 5.34375 14.636719 4.339844 17.941406 4.148438 C 23.875 3.804688 29.503906 5.894531 30.644531 6.34375 C 32.84375 4.835938 35.671875 3.894531 39.203125 3.957031 C 40.980469 3.984375 42.691406 4.21875 44.328125 4.640625 L 44.175781 4.609375 L 44.238281 4.582031 C 44.808594 4.367188 45.539062 4.148438 46.289062 3.96875 Z M 46.417969 3.941406 " fill-opacity="1" fill-rule="nonzero"/></g></svg>