<svg xmlns="http://www.w3.org/2000/svg" xmlns:xlink="http://www.w3.org/1999/xlink" width="100" zoomAndPan="magnify" viewBox="0 0 75 74.999997" height="100" preserveAspectRatio="xMidYMid meet" version="1.0"><defs><clipPath id="f22c04b72f"><path d="M 5.621094 1.878906 L 69.371094 1.878906 L 69.371094 73.128906 L 5.621094 73.128906 Z M 5.621094 1.878906 " clip-rule="nonzero"/></clipPath></defs><rect x="-7.5" width="90" fill="#ffffff" y="-7.5" height="89.999996" fill-opacity="1"/><rect x="-7.5" width="90" fill="#f0e6e4" y="-7.5" height="89.999996" fill-opacity="1"/><g clip-path="url(#f22c04b72f)"><path fill="#3e2325" d="M 69.367188 1.878906 L 63.742188 65.621094 L 37.496094 73.117188 L 11.25 65.621094 L 5.625 1.878906 Z M 22.125 43.125 L 29.625 43.125 L 29.804688 47.808594 L 37.496094 50.433594 L 45.183594 47.808594 L 45.742188 39.375 L 29.25 39.375 L 28.867188 31.875 L 46.121094 31.875 L 46.679688 24.375 L 20.8125 24.375 L 20.25 16.878906 L 54.558594 16.878906 L 53.621094 31.875 L 52.300781 53.433594 L 37.496094 58.3125 L 22.6875 53.433594 Z M 22.125 43.125 " fill-opacity="1" fill-rule="evenodd"/></g></svg>