<svg xmlns="http://www.w3.org/2000/svg" xmlns:xlink="http://www.w3.org/1999/xlink" width="100" zoomAndPan="magnify" viewBox="0 0 75 74.999997" height="100" preserveAspectRatio="xMidYMid meet" version="1.0"><defs><clipPath id="d12fcc9028"><path d="M 2.550781 2.550781 L 72.300781 2.550781 L 72.300781 72.300781 L 2.550781 72.300781 Z M 2.550781 2.550781 " clip-rule="nonzero"/></clipPath></defs><rect x="-7.5" width="90" fill="#ffffff" y="-7.5" height="89.999996" fill-opacity="1"/><rect x="-7.5" width="90" fill="#f0e6e4" y="-7.5" height="89.999996" fill-opacity="1"/><g clip-path="url(#d12fcc9028)"><path fill="#3e2325" d="M 56.113281 66.960938 C 50.015625 66.960938 46.074219 64.054688 44.152344 60.25 L 49.5 57.152344 C 50.90625 59.453125 52.734375 61.140625 55.972656 61.140625 C 58.691406 61.140625 60.429688 59.78125 60.429688 57.90625 C 60.429688 55.082031 56.660156 53.976562 54.003906 52.839844 C 49.261719 50.820312 46.117188 48.289062 46.117188 42.9375 C 46.117188 38.015625 49.871094 34.261719 55.738281 34.261719 C 59.910156 34.261719 62.917969 35.714844 65.074219 39.515625 L 59.960938 42.796875 C 58.835938 40.78125 57.617188 39.984375 55.738281 39.984375 C 53.8125 39.984375 52.59375 41.203125 52.59375 42.796875 C 52.59375 44.769531 53.8125 45.566406 56.628906 46.785156 C 62.53125 49.316406 66.996094 51.304688 66.996094 57.8125 C 67 63.726562 62.355469 66.960938 56.113281 66.960938 Z M 40.988281 57.0625 C 40.988281 63.863281 36.800781 67.460938 30.980469 67.460938 C 25.726562 67.460938 22.578125 65.453125 21.027344 61.957031 L 20.9375 61.957031 L 26.28125 58.222656 C 27.3125 60.050781 28.242188 61.347656 30.492188 61.347656 C 32.652344 61.347656 34 60.253906 34 56.972656 L 34 34 L 40.988281 34 Z M 2.550781 72.441406 L 72.441406 72.441406 L 72.441406 2.550781 L 2.550781 2.550781 Z M 2.550781 72.441406 " fill-opacity="1" fill-rule="evenodd"/></g></svg>