<svg xmlns="http://www.w3.org/2000/svg" xmlns:xlink="http://www.w3.org/1999/xlink" width="100" zoomAndPan="magnify" viewBox="0 0 75 74.999997" height="100" preserveAspectRatio="xMidYMid meet" version="1.0"><defs><clipPath id="cfa667dd85"><path d="M 1.574219 1.574219 L 73.574219 1.574219 L 73.574219 73.574219 L 1.574219 73.574219 Z M 1.574219 1.574219 " clip-rule="nonzero"/></clipPath></defs><rect x="-7.5" width="90" fill="#ffffff" y="-7.5" height="89.999996" fill-opacity="1"/><rect x="-7.5" width="90" fill="#f0e6e4" y="-7.5" height="89.999996" fill-opacity="1"/><g clip-path="url(#cfa667dd85)"><path fill="#3e2325" d="M 1.574219 73.421875 L 73.421875 73.421875 L 73.421875 1.574219 L 1.574219 1.574219 Z M 1.574219 73.421875 " fill-opacity="1" fill-rule="nonzero"/></g><path fill="#ffffff" d="M 17.460938 37.734375 L 17.4375 40.679688 L 26.789062 40.679688 L 26.789062 67.25 L 33.402344 67.25 L 33.402344 40.679688 L 42.753906 40.679688 L 42.753906 37.792969 C 42.753906 36.195312 42.722656 34.859375 42.675781 34.828125 C 42.640625 34.78125 36.949219 34.757812 30.050781 34.769531 L 17.492188 34.804688 Z M 17.460938 37.734375 " fill-opacity="1" fill-rule="nonzero"/><path fill="#ffffff" d="M 59.550781 34.722656 C 61.375 35.179688 62.765625 35.988281 64.042969 37.3125 C 64.703125 38.019531 65.683594 39.304688 65.761719 39.613281 C 65.785156 39.707031 62.664062 41.804688 60.769531 42.980469 C 60.699219 43.023438 60.429688 42.726562 60.121094 42.273438 C 59.195312 40.925781 58.226562 40.34375 56.742188 40.242188 C 54.566406 40.09375 53.164062 41.234375 53.171875 43.140625 C 53.171875 43.699219 53.253906 44.03125 53.480469 44.484375 C 53.960938 45.476562 54.851562 46.070312 57.644531 47.28125 C 62.789062 49.492188 64.988281 50.949219 66.359375 53.027344 C 67.886719 55.34375 68.226562 59.035156 67.1875 61.785156 C 66.050781 64.773438 63.222656 66.800781 59.242188 67.476562 C 58.007812 67.691406 55.089844 67.65625 53.765625 67.417969 C 50.878906 66.90625 48.144531 65.480469 46.457031 63.609375 C 45.796875 62.882812 44.507812 60.976562 44.585938 60.839844 C 44.621094 60.792969 44.917969 60.609375 45.246094 60.417969 C 45.566406 60.234375 46.777344 59.539062 47.917969 58.875 L 49.980469 57.679688 L 50.414062 58.316406 C 51.019531 59.242188 52.34375 60.507812 53.140625 60.929688 C 55.433594 62.136719 58.578125 61.964844 60.128906 60.578125 C 60.792969 59.972656 61.066406 59.34375 61.066406 58.421875 C 61.066406 57.589844 60.964844 57.222656 60.53125 56.597656 C 59.972656 55.796875 58.832031 55.125 55.59375 53.722656 C 51.886719 52.125 50.289062 51.132812 48.828125 49.558594 C 47.984375 48.644531 47.1875 47.1875 46.855469 45.964844 C 46.582031 44.953125 46.511719 42.410156 46.730469 41.382812 C 47.496094 37.800781 50.199219 35.304688 54.097656 34.5625 C 55.363281 34.324219 58.304688 34.414062 59.550781 34.722656 Z M 59.550781 34.722656 " fill-opacity="1" fill-rule="nonzero"/></svg>