<svg xmlns="http://www.w3.org/2000/svg" xmlns:xlink="http://www.w3.org/1999/xlink" width="100" zoomAndPan="magnify" viewBox="0 0 75 74.999997" height="100" preserveAspectRatio="xMidYMid meet" version="1.0"><defs><clipPath id="4c59c43dd2"><path d="M 2.078125 6 L 72.578125 6 L 72.578125 69 L 2.078125 69 Z M 2.078125 6 " clip-rule="nonzero"/></clipPath></defs><rect x="-7.5" width="90" fill="#ffffff" y="-7.5" height="89.999996" fill-opacity="1"/><rect x="-7.5" width="90" fill="#f0e6e4" y="-7.5" height="89.999996" fill-opacity="1"/><path fill="#3e2325" d="M 43.824219 37.441406 C 43.824219 34.050781 40.992188 31.304688 37.5 31.304688 C 34.007812 31.304688 31.171875 34.050781 31.171875 37.441406 C 31.171875 40.828125 34.007812 43.574219 37.5 43.574219 C 40.992188 43.574219 43.824219 40.828125 43.824219 37.441406 Z M 43.824219 37.441406 " fill-opacity="1" fill-rule="nonzero"/><g clip-path="url(#4c59c43dd2)"><path fill="#3e2325" d="M 58.042969 26.050781 C 59.378906 20.789062 61.058594 11.03125 55.140625 7.71875 C 49.246094 4.425781 41.582031 10.738281 37.53125 14.527344 C 33.496094 10.777344 25.613281 4.492188 19.699219 7.808594 C 13.808594 11.117188 15.625 20.714844 16.992188 26.011719 C 11.496094 27.523438 2.078125 30.78125 2.078125 37.441406 C 2.078125 44.078125 11.488281 47.625 16.949219 49.136719 C 15.578125 54.460938 13.851562 63.921875 19.75 67.21875 C 25.6875 70.539062 33.542969 64.402344 37.628906 60.570312 C 41.703125 64.382812 49.296875 70.558594 55.191406 67.253906 C 61.101562 63.933594 59.5625 54.304688 58.195312 48.976562 C 63.492188 47.464844 72.917969 43.996094 72.917969 37.441406 C 72.917969 30.847656 63.449219 27.5625 58.042969 26.050781 Z M 57.371094 46.15625 C 56.476562 43.402344 55.265625 40.476562 53.785156 37.453125 C 55.199219 34.503906 56.363281 31.613281 57.234375 28.878906 C 61.199219 29.992188 69.894531 32.539062 69.894531 37.441406 C 69.894531 42.382812 61.546875 44.957031 57.371094 46.15625 Z M 53.675781 64.714844 C 49.277344 67.179688 42.746094 61.273438 39.738281 58.46875 C 41.734375 56.351562 43.730469 53.890625 45.675781 51.15625 C 49.101562 50.863281 52.335938 50.378906 55.269531 49.722656 C 56.230469 53.492188 58.089844 62.234375 53.675781 64.714844 Z M 21.261719 64.679688 C 16.863281 62.21875 18.875 53.777344 19.882812 49.855469 C 22.785156 50.476562 25.996094 50.925781 29.429688 51.195312 C 31.390625 53.867188 33.441406 56.324219 35.511719 58.476562 C 32.953125 60.875 25.679688 67.148438 21.261719 64.679688 Z M 5.105469 37.441406 C 5.105469 32.476562 13.75 29.949219 17.804688 28.835938 C 18.691406 31.632812 19.851562 34.554688 21.257812 37.511719 C 19.835938 40.511719 18.65625 43.480469 17.761719 46.308594 C 13.894531 45.234375 5.105469 42.40625 5.105469 37.441406 Z M 21.214844 10.347656 C 25.628906 7.871094 32.480469 13.90625 35.410156 16.621094 C 33.355469 18.765625 31.320312 21.203125 29.378906 23.863281 C 26.046875 24.164062 22.855469 24.644531 19.925781 25.289062 C 18.824219 21.015625 16.804688 12.824219 21.214844 10.347656 Z M 47.839844 27.050781 C 50.101562 27.328125 52.265625 27.695312 54.300781 28.148438 C 53.6875 30.042969 52.929688 32.027344 52.03125 34.0625 C 50.734375 31.671875 49.339844 29.328125 47.839844 27.050781 Z M 37.53125 18.71875 C 38.929688 20.183594 40.328125 21.824219 41.703125 23.597656 C 38.914062 23.472656 36.117188 23.46875 33.328125 23.597656 C 34.707031 21.835938 36.117188 20.203125 37.53125 18.71875 Z M 22.992188 34.058594 C 22.109375 32.03125 21.355469 30.039062 20.742188 28.117188 C 22.761719 27.675781 24.917969 27.320312 27.164062 27.046875 C 25.660156 29.320312 24.269531 31.660156 22.992188 34.058594 Z M 27.226562 48.042969 C 24.910156 47.789062 22.71875 47.449219 20.699219 47.023438 C 21.324219 45.066406 22.097656 43.03125 22.996094 40.960938 C 24.289062 43.382812 25.703125 45.746094 27.226562 48.042969 Z M 37.617188 56.367188 C 36.183594 54.867188 34.753906 53.207031 33.355469 51.421875 C 36.160156 51.527344 38.972656 51.527344 41.777344 51.40625 C 40.394531 53.226562 39.003906 54.886719 37.617188 56.367188 Z M 52.0625 40.855469 C 53.007812 42.949219 53.804688 44.972656 54.441406 46.898438 C 52.386719 47.351562 50.167969 47.71875 47.832031 47.988281 C 49.339844 45.667969 50.757812 43.289062 52.0625 40.855469 Z M 43.988281 48.34375 C 39.695312 48.640625 35.378906 48.636719 31.085938 48.367188 C 28.648438 44.914062 26.476562 41.28125 24.601562 37.511719 C 26.464844 33.746094 28.621094 30.121094 31.050781 26.671875 C 35.34375 26.355469 39.667969 26.355469 43.960938 26.671875 C 46.367188 30.121094 48.519531 33.738281 50.429688 37.46875 C 48.542969 41.230469 46.375 44.863281 43.988281 48.34375 Z M 53.628906 10.261719 C 58.042969 12.730469 56.078125 21.503906 55.113281 25.316406 C 52.175781 24.660156 48.984375 24.171875 45.640625 23.867188 C 43.695312 21.179688 41.679688 18.734375 39.652344 16.621094 C 42.621094 13.847656 49.253906 7.816406 53.628906 10.261719 Z M 53.628906 10.261719 " fill-opacity="1" fill-rule="evenodd"/></g></svg>