<svg xmlns="http://www.w3.org/2000/svg" xmlns:xlink="http://www.w3.org/1999/xlink" width="100" zoomAndPan="magnify" viewBox="0 0 75 74.999997" height="100" preserveAspectRatio="xMidYMid meet" version="1.0"><rect x="-7.5" width="90" fill="#ffffff" y="-7.5" height="89.999996" fill-opacity="1"/><rect x="-7.5" width="90" fill="#f0e6e4" y="-7.5" height="89.999996" fill-opacity="1"/><path fill="#3e2325" d="M 55.453125 7.585938 C 32.121094 -6.132812 2.476562 10.625 2.21875 37.675781 C 1.964844 64.089844 29.917969 81.148438 53.199219 69.523438 L 27.78125 32.128906 L 27.78125 55.277344 C 27.78125 57.839844 22.875 57.839844 22.875 55.277344 L 22.875 24.246094 C 22.875 22.210938 26.65625 22.042969 27.726562 23.8125 L 56.695312 67.53125 C 78.460938 53.511719 78.164062 20.941406 55.453125 7.585938 Z M 52.179688 51.390625 L 47.257812 43.871094 L 47.257812 23.285156 C 47.257812 21.367188 52.179688 21.367188 52.179688 23.285156 Z M 52.179688 51.390625 " fill-opacity="1" fill-rule="nonzero"/></svg>