<svg xmlns="http://www.w3.org/2000/svg" xmlns:xlink="http://www.w3.org/1999/xlink" width="100" zoomAndPan="magnify" viewBox="0 0 75 74.999997" height="100" preserveAspectRatio="xMidYMid meet" version="1.0"><defs><clipPath id="f23b5685af"><path d="M 2.136719 2.136719 L 72.636719 2.136719 L 72.636719 72.636719 L 2.136719 72.636719 Z M 2.136719 2.136719 " clip-rule="nonzero"/></clipPath></defs><rect x="-7.5" width="90" fill="#ffffff" y="-7.5" height="89.999996" fill-opacity="1"/><rect x="-7.5" width="90" fill="#f0e6e4" y="-7.5" height="89.999996" fill-opacity="1"/><g clip-path="url(#f23b5685af)"><path fill="#3e2325" d="M 72.859375 37.5 C 72.859375 38.65625 72.804688 39.8125 72.691406 40.964844 C 72.578125 42.117188 72.40625 43.261719 72.179688 44.398438 C 71.953125 45.535156 71.671875 46.65625 71.335938 47.761719 C 71 48.871094 70.613281 49.960938 70.167969 51.03125 C 69.726562 52.101562 69.230469 53.148438 68.683594 54.167969 C 68.140625 55.1875 67.542969 56.179688 66.902344 57.144531 C 66.257812 58.109375 65.566406 59.035156 64.832031 59.933594 C 64.097656 60.828125 63.320312 61.683594 62.503906 62.503906 C 61.683594 63.320312 60.828125 64.097656 59.933594 64.832031 C 59.035156 65.566406 58.109375 66.257812 57.144531 66.902344 C 56.179688 67.542969 55.1875 68.140625 54.167969 68.683594 C 53.148438 69.230469 52.101562 69.726562 51.03125 70.167969 C 49.960938 70.613281 48.871094 71 47.765625 71.335938 C 46.65625 71.671875 45.535156 71.953125 44.398438 72.179688 C 43.261719 72.40625 42.117188 72.578125 40.964844 72.691406 C 39.8125 72.804688 38.65625 72.859375 37.5 72.859375 C 36.339844 72.859375 35.183594 72.804688 34.03125 72.691406 C 32.878906 72.578125 31.734375 72.40625 30.601562 72.179688 C 29.464844 71.953125 28.34375 71.671875 27.234375 71.335938 C 26.125 71 25.035156 70.613281 23.964844 70.167969 C 22.898438 69.726562 21.851562 69.230469 20.828125 68.683594 C 19.808594 68.140625 18.816406 67.542969 17.851562 66.902344 C 16.890625 66.257812 15.960938 65.566406 15.066406 64.832031 C 14.171875 64.097656 13.3125 63.320312 12.496094 62.503906 C 11.675781 61.683594 10.898438 60.828125 10.164062 59.933594 C 9.429688 59.035156 8.742188 58.109375 8.097656 57.144531 C 7.453125 56.179688 6.859375 55.1875 6.3125 54.167969 C 5.765625 53.148438 5.273438 52.101562 4.828125 51.03125 C 4.386719 49.960938 3.996094 48.871094 3.660156 47.761719 C 3.324219 46.65625 3.042969 45.535156 2.816406 44.398438 C 2.589844 43.261719 2.421875 42.117188 2.308594 40.964844 C 2.195312 39.8125 2.136719 38.65625 2.136719 37.5 C 2.136719 36.339844 2.195312 35.183594 2.308594 34.03125 C 2.421875 32.878906 2.589844 31.734375 2.816406 30.601562 C 3.042969 29.464844 3.324219 28.34375 3.660156 27.234375 C 3.996094 26.125 4.386719 25.035156 4.828125 23.964844 C 5.273438 22.898438 5.765625 21.851562 6.3125 20.828125 C 6.859375 19.808594 7.453125 18.816406 8.097656 17.851562 C 8.742188 16.890625 9.429688 15.960938 10.164062 15.066406 C 10.898438 14.171875 11.675781 13.3125 12.496094 12.496094 C 13.3125 11.675781 14.171875 10.898438 15.066406 10.164062 C 15.960938 9.429688 16.890625 8.742188 17.851562 8.097656 C 18.816406 7.453125 19.808594 6.859375 20.828125 6.3125 C 21.851562 5.765625 22.898438 5.273438 23.964844 4.828125 C 25.035156 4.386719 26.125 3.996094 27.234375 3.660156 C 28.34375 3.324219 29.464844 3.042969 30.601562 2.816406 C 31.734375 2.589844 32.878906 2.421875 34.03125 2.308594 C 35.183594 2.195312 36.339844 2.136719 37.5 2.136719 C 38.65625 2.136719 39.8125 2.195312 40.964844 2.308594 C 42.117188 2.421875 43.261719 2.589844 44.398438 2.816406 C 45.535156 3.042969 46.65625 3.324219 47.765625 3.660156 C 48.871094 3.996094 49.960938 4.386719 51.03125 4.828125 C 52.101562 5.273438 53.148438 5.765625 54.167969 6.3125 C 55.1875 6.859375 56.179688 7.453125 57.144531 8.097656 C 58.109375 8.742188 59.035156 9.429688 59.933594 10.164062 C 60.828125 10.898438 61.683594 11.675781 62.503906 12.496094 C 63.320312 13.3125 64.097656 14.171875 64.832031 15.066406 C 65.566406 15.960938 66.257812 16.890625 66.902344 17.851562 C 67.542969 18.816406 68.140625 19.808594 68.683594 20.828125 C 69.230469 21.851562 69.726562 22.898438 70.167969 23.964844 C 70.613281 25.035156 71 26.125 71.335938 27.234375 C 71.671875 28.34375 71.953125 29.464844 72.179688 30.601562 C 72.40625 31.734375 72.578125 32.878906 72.691406 34.03125 C 72.804688 35.183594 72.859375 36.339844 72.859375 37.5 Z M 72.859375 37.5 " fill-opacity="1" fill-rule="nonzero"/></g><path fill="#f0e6e4" d="M 56.464844 46.386719 L 18.558594 46.386719 C 18.238281 46.386719 18.027344 46.148438 18.027344 45.855469 L 18.027344 23.679688 C 18.027344 21.902344 19.460938 20.441406 21.265625 20.441406 L 53.761719 20.441406 C 55.539062 20.441406 56.996094 21.902344 56.996094 23.679688 L 56.996094 45.855469 C 56.996094 46.148438 56.757812 46.386719 56.464844 46.386719 Z M 19.089844 45.324219 L 55.933594 45.324219 L 55.933594 23.679688 C 55.933594 22.484375 54.953125 21.503906 53.761719 21.503906 L 21.265625 21.503906 C 20.042969 21.503906 19.089844 22.484375 19.089844 23.679688 Z M 19.089844 45.324219 " fill-opacity="1" fill-rule="evenodd"/><path fill="#f0e6e4" d="M 55.511719 54.582031 L 19.488281 54.582031 C 16.941406 54.582031 14.871094 52.488281 14.871094 49.941406 L 14.871094 45.855469 C 14.871094 45.5625 15.109375 45.324219 15.402344 45.324219 L 28.796875 45.324219 L 32.40625 50.445312 C 32.511719 50.578125 32.671875 50.65625 32.828125 50.65625 L 42.167969 50.65625 C 42.351562 50.65625 42.511719 50.578125 42.617188 50.445312 L 46.226562 45.324219 L 59.621094 45.324219 C 59.914062 45.324219 60.152344 45.5625 60.152344 45.855469 L 60.152344 49.941406 C 60.152344 52.488281 58.058594 54.582031 55.511719 54.582031 Z M 55.828125 50.472656 L 50.390625 50.472656 C 50.097656 50.472656 49.859375 50.230469 49.859375 49.941406 C 49.859375 49.648438 50.097656 49.410156 50.390625 49.410156 L 55.828125 49.410156 C 56.121094 49.410156 56.359375 49.648438 56.359375 49.941406 C 56.359375 50.230469 56.121094 50.472656 55.828125 50.472656 Z M 24.632812 50.472656 L 19.195312 50.472656 C 18.902344 50.472656 18.664062 50.230469 18.664062 49.941406 C 18.664062 49.648438 18.902344 49.410156 19.195312 49.410156 L 24.632812 49.410156 C 24.925781 49.410156 25.164062 49.648438 25.164062 49.941406 C 25.164062 50.230469 24.925781 50.472656 24.632812 50.472656 Z M 30.097656 45.324219 L 44.925781 45.324219 L 41.902344 49.59375 L 33.121094 49.59375 Z M 30.097656 45.324219 " fill-opacity="1" fill-rule="evenodd"/><path fill="#f0e6e4" d="M 43.945312 34.476562 C 41.425781 34.476562 38.957031 33.546875 37.128906 31.929688 C 36.515625 31.371094 36.039062 30.894531 35.640625 30.46875 C 34.765625 29.566406 34.34375 29.167969 33.730469 29.167969 C 32.960938 29.167969 31.742188 29.753906 29.433594 31.316406 C 29.25 31.449219 28.984375 31.425781 28.796875 31.292969 C 28.636719 31.160156 28.558594 30.921875 28.636719 30.707031 C 28.71875 30.46875 30.65625 24.792969 35.773438 24.792969 C 36.277344 24.792969 36.78125 24.84375 37.285156 24.953125 C 39.277344 25.347656 41.691406 26.835938 42.9375 28 C 44.34375 29.355469 45.269531 30.152344 46.414062 30.152344 C 47.234375 30.152344 48.214844 29.726562 49.488281 28.769531 C 49.648438 28.664062 49.859375 28.636719 50.046875 28.71875 C 50.230469 28.824219 50.339844 29.011719 50.339844 29.195312 C 50.339844 32.351562 47.765625 34.476562 43.945312 34.476562 Z M 40.019531 42.035156 C 37.5 42.035156 35.03125 41.105469 33.203125 39.488281 C 32.589844 38.957031 32.113281 38.453125 31.714844 38.03125 C 30.839844 37.128906 30.414062 36.730469 29.804688 36.730469 C 29.035156 36.730469 27.816406 37.339844 25.507812 38.878906 C 25.324219 39.011719 25.058594 39.011719 24.898438 38.878906 C 24.710938 38.71875 24.632812 38.480469 24.710938 38.269531 C 24.792969 38.03125 26.730469 32.351562 31.875 32.351562 C 32.351562 32.351562 32.855469 32.40625 33.359375 32.511719 C 35.351562 32.9375 37.765625 34.394531 39.011719 35.589844 C 40.417969 36.914062 41.34375 37.710938 42.484375 37.710938 C 43.308594 37.710938 44.289062 37.285156 45.5625 36.359375 C 45.722656 36.226562 45.933594 36.199219 46.121094 36.304688 C 46.304688 36.382812 46.414062 36.570312 46.414062 36.78125 C 46.414062 39.914062 43.839844 42.035156 40.019531 42.035156 Z M 40.019531 42.035156 " fill-opacity="1" fill-rule="evenodd"/></svg>