<svg xmlns="http://www.w3.org/2000/svg" xmlns:xlink="http://www.w3.org/1999/xlink" width="100" zoomAndPan="magnify" viewBox="0 0 75 74.999997" height="100" preserveAspectRatio="xMidYMid meet" version="1.0"><defs><clipPath id="bb046aab84"><path d="M 5.800781 1.773438 L 69.550781 1.773438 L 69.550781 73.023438 L 5.800781 73.023438 Z M 5.800781 1.773438 " clip-rule="nonzero"/></clipPath></defs><rect x="-7.5" width="90" fill="#ffffff" y="-7.5" height="89.999996" fill-opacity="1"/><rect x="-7.5" width="90" fill="#f0e6e4" y="-7.5" height="89.999996" fill-opacity="1"/><g clip-path="url(#bb046aab84)"><path fill="#3e2325" d="M 37.5 73.210938 C 36.515625 73.210938 35.601562 72.949219 34.75 72.492188 L 26.046875 67.324219 C 24.738281 66.605469 25.394531 66.34375 25.785156 66.210938 C 27.554688 65.621094 27.878906 65.492188 29.710938 64.445312 C 29.910156 64.3125 30.171875 64.378906 30.367188 64.511719 L 37.039062 68.5 C 37.300781 68.632812 37.628906 68.632812 37.828125 68.5 L 63.929688 53.386719 C 64.191406 53.257812 64.324219 52.996094 64.324219 52.667969 L 64.324219 22.503906 C 64.324219 22.179688 64.191406 21.917969 63.929688 21.785156 L 37.828125 6.738281 C 37.566406 6.605469 37.238281 6.605469 37.039062 6.738281 L 10.9375 21.785156 C 10.671875 21.917969 10.542969 22.242188 10.542969 22.503906 L 10.542969 52.667969 C 10.542969 52.929688 10.671875 53.257812 10.933594 53.390625 L 18.066406 57.507812 C 21.925781 59.472656 24.347656 57.183594 24.347656 54.890625 L 24.347656 25.121094 C 24.347656 24.730469 24.675781 24.335938 25.132812 24.335938 L 28.46875 24.335938 C 28.863281 24.335938 29.253906 24.664062 29.253906 25.121094 L 29.253906 54.890625 C 29.253906 60.0625 26.441406 63.070312 21.535156 63.070312 C 20.027344 63.070312 18.851562 63.070312 15.515625 61.433594 L 8.644531 57.507812 C 6.945312 56.53125 5.898438 54.699219 5.898438 52.734375 L 5.898438 22.574219 C 5.898438 20.609375 6.945312 18.777344 8.644531 17.796875 L 34.75 2.679688 C 36.386719 1.765625 38.613281 1.765625 40.246094 2.679688 L 66.351562 17.796875 C 68.054688 18.777344 69.101562 20.609375 69.101562 22.570312 L 69.101562 52.734375 C 69.101562 54.695312 68.054688 56.527344 66.351562 57.507812 L 40.246094 72.621094 C 39.398438 73.015625 38.414062 73.210938 37.5 73.210938 Z M 45.546875 52.472656 C 34.097656 52.472656 31.742188 47.234375 31.742188 42.785156 C 31.742188 42.394531 32.066406 42.003906 32.527344 42.003906 L 35.929688 42.003906 C 36.320312 42.003906 36.648438 42.265625 36.648438 42.65625 C 37.171875 46.125 38.675781 47.824219 45.609375 47.824219 C 51.105469 47.824219 53.460938 46.582031 53.460938 43.640625 C 53.460938 41.9375 52.808594 40.695312 44.238281 39.84375 C 37.105469 39.125 32.65625 37.554688 32.65625 31.863281 C 32.65625 26.5625 37.105469 23.421875 44.5625 23.421875 C 52.9375 23.421875 57.0625 26.300781 57.585938 32.582031 C 57.585938 32.777344 57.519531 32.972656 57.386719 33.171875 C 57.257812 33.300781 57.0625 33.433594 56.863281 33.433594 L 53.460938 33.433594 C 53.136719 33.433594 52.808594 33.171875 52.742188 32.84375 C 51.957031 29.246094 49.929688 28.066406 44.5625 28.066406 C 38.546875 28.066406 37.828125 30.160156 37.828125 31.730469 C 37.828125 33.628906 38.675781 34.21875 46.789062 35.265625 C 54.835938 36.3125 58.632812 37.816406 58.632812 43.441406 C 58.566406 49.199219 53.855469 52.472656 45.546875 52.472656 Z M 45.546875 52.472656 " fill-opacity="1" fill-rule="nonzero"/></g></svg>