<svg xmlns="http://www.w3.org/2000/svg" xmlns:xlink="http://www.w3.org/1999/xlink" width="100" zoomAndPan="magnify" viewBox="0 0 75 74.999997" height="100" preserveAspectRatio="xMidYMid meet" version="1.0"><rect x="-7.5" width="90" fill="#ffffff" y="-7.5" height="89.999996" fill-opacity="1"/><rect x="-7.5" width="90" fill="#f0e6e4" y="-7.5" height="89.999996" fill-opacity="1"/><path fill="#3e2325" d="M 39.835938 0.203125 L 41.835938 3.964844 C 42.289062 4.65625 42.773438 5.269531 43.347656 5.84375 C 45.023438 7.519531 46.617188 9.273438 48.046875 11.152344 C 51.4375 15.605469 53.726562 20.550781 55.359375 25.902344 C 56.339844 29.167969 56.871094 32.519531 56.910156 35.910156 C 57.074219 46.039062 53.601562 54.742188 46.597656 61.972656 C 45.453125 63.113281 44.230469 64.175781 42.917969 65.117188 C 42.222656 65.117188 41.894531 64.585938 41.609375 64.09375 C 41.078125 63.195312 40.753906 62.171875 40.589844 61.152344 C 40.34375 59.925781 40.179688 58.703125 40.261719 57.4375 L 40.261719 56.863281 C 40.203125 56.742188 39.59375 0.492188 39.835938 0.203125 Z M 39.835938 0.203125 " fill-opacity="1" fill-rule="nonzero"/><path fill="#54383a" d="M 39.835938 0.078125 C 39.753906 -0.0859375 39.671875 0.0390625 39.589844 0.121094 C 39.628906 0.941406 39.34375 1.671875 38.894531 2.371094 C 38.402344 3.0625 37.753906 3.59375 37.097656 4.167969 C 33.464844 7.3125 30.605469 11.113281 28.316406 15.359375 C 25.269531 21.078125 23.699219 27.207031 23.253906 33.660156 C 23.050781 35.988281 23.988281 44.199219 24.722656 46.570312 C 26.726562 52.859375 30.320312 58.132812 34.976562 62.707031 C 36.121094 63.808594 37.34375 64.832031 38.609375 65.8125 C 38.976562 65.8125 39.019531 65.484375 39.101562 65.242188 C 39.265625 64.71875 39.386719 64.1875 39.46875 63.648438 L 40.289062 57.519531 Z M 39.835938 0.078125 " fill-opacity="1" fill-rule="nonzero"/><path fill="#c2bfbf" d="M 41.835938 67.605469 C 41.917969 66.667969 42.371094 65.890625 42.859375 65.113281 C 42.367188 64.910156 42 64.503906 41.714844 64.050781 C 41.46875 63.644531 41.265625 63.15625 41.105469 62.703125 C 40.535156 60.988281 40.414062 59.1875 40.25 57.4375 L 40.25 56.375 C 40.042969 56.539062 40.003906 57.925781 40.003906 58.132812 C 39.882812 59.988281 39.636719 61.824219 39.265625 63.648438 C 39.144531 64.382812 39.0625 65.117188 38.609375 65.769531 C 38.609375 65.851562 38.609375 65.933594 38.648438 66.054688 C 39.386719 68.222656 39.585938 70.425781 39.710938 72.675781 L 39.710938 73.496094 C 39.710938 74.476562 39.671875 74.269531 40.484375 74.597656 C 40.8125 74.71875 41.179688 74.761719 41.507812 75.003906 C 41.753906 75.003906 41.792969 74.800781 41.792969 74.636719 L 41.671875 73.289062 L 41.671875 69.53125 C 41.632812 68.875 41.753906 68.222656 41.835938 67.609375 Z M 41.835938 67.605469 " fill-opacity="1" fill-rule="nonzero"/></svg>